# xmcd
#
# Track frame offsets: 
#        150
#        41943
#        62938
#        79569
#        104496
#        121044
#        131012
#        168565
#        219375
#
# Disc length: 3249 seconds
#
# Revision: 0
# Processed by: cddbd v1.5.2PL0 Copyright (c) Steve Scherf et al.
# Submitted via: ExactAudioCopy v1.0b1
#
DISCID=7e0caf09
DTITLE=Pristine - Detoxing
DYEAR=2011
DGENRE=Blues
TTITLE0=Damned If I Do
TTITLE1=You Don't Know
TTITLE2=Breaking Bad
TTITLE3=Whipping Post
TTITLE4=The Countdown
TTITLE5=Damage Is Done
TTITLE6=The Last Day
TTITLE7=Detoxing
TTITLE8=The Blind
EXTD=
EXTT0=
EXTT1=
EXTT2=
EXTT3=
EXTT4=
EXTT5=
EXTT6=
EXTT7=
EXTT8=
PLAYORDER=
